/* XPM */
static char *tiles[] = {
/* columns rows colors chars-per-pixel */
"64 64 2 1 ",
"  c None",
". c red",
/* pixels */
". ..............................................................",
".                                                              .",
".                                                              .",
".                                                              .",
".                                                              .",
".                                                              .",
".                                                              .",
".    ..........                          .                     .",
".    ... .. ...                                                .",
".        ..                             ..                     .",
".        ..                             ..                     .",
".         .         ... .     ....      ..                     .",
".        .          .. ..    .. ...     ..                     .",
".        ..        ..   .   .....    .. ... ..                 .",
".        ..        ......   .        ... ... .                 .",
".        ..         .       ......      ..                     .",
".        .         ..          ...      ..                     .",
".        ..        ......        .      ..                     .",
".                   ....    ..  ..      ...                    .",
".                            .....      .....                  .",
".                            . ..        . ..                  .",
".                                                              .",
".                                                              .",
".                                                              .",
".                                                              .",
".                                                              .",
".                                                              .",
".                                                              .",
".                                                              .",
".                                                              .",
".                                                              .",
".                                                              .",
".                                                              .",
".                     .                                        .",
".                     .                                        .",
".             .             ..                                 .",
".             .              .                                 .",
".                                                              .",
".             .       .      .                                 .",
".           . ...     .      .         ...                     .",
".             .       .      .       .   .                     .",
".             .       .      .       .   .                     .",
".             .       .      .        .                        .",
".                                    . ...                     .",
".             .       .      .       .                         .",
".             .       .      .       .                         .",
".             .       .      ..      ..   .                    .",
".              ..     .       .        . ...                   .",
".                             ...                              .",
".                                                              .",
".                                                              .",
".                                                              .",
".                                                              .",
".                                                              .",
".                                                              .",
".                                                              .",
".                                                              .",
".                                                              .",
".                                                              .",
".                                                              .",
".                                                              .",
".                                                              .",
".                                                              .",
"................................................................"
};
